<svg xmlns="http://www.w3.org/2000/svg" version="1.1" xmlns:xlink="http://www.w3.org/1999/xlink" xmlns:svgjs="http://svgjs.dev/svgjs" viewBox="0 0 9.246050467940279 3.462953548001103"><g transform="matrix(0.7657950128652808,0,0,0.7657950128652808,1.4882560610243223,1.2926762316287457)"><rect width="10.305134135935393" height="10.305134135935393" x="-1.0590836679951154" y="-4.579567067967696" fill="#ffffff"></rect><g clip-path="url(#SvgjsClipPath3157)"><g clip-path="url(#aac5f6614-4f29-44bb-b0c7-ce4aa61bfe286a24b1a0-eb14-413e-ba9d-ef43a828dcdc)"><path d=" M 8.186966799945164 0.5730467879224572 C 8.186966799945164 1.2368738317452015 7.648812115842459 1.7749349400029937 6.984985072019715 1.7749349400029937 C 6.321158028196971 1.7749349400029937 5.783003344094263 1.2368738317452015 5.783003344094263 0.5730467879224572 C 5.783003344094263 -0.09078025590028704 6.321158028196971 -0.628934940002994 6.984985072019715 -0.628934940002994 C 7.648812115842459 -0.628934940002994 8.186966799945164 -0.09078025590028704 8.186966799945164 0.5730467879224572" fill="#1192dc" transform="matrix(1,0,0,1,0,0)" fill-rule="nonzero"></path></g><g clip-path="url(#aac5f6614-4f29-44bb-b0c7-ce4aa61bfe286a24b1a0-eb14-413e-ba9d-ef43a828dcdc)"><path d=" M 7.830910710045878 1.4220604288307963 C 7.361534271955255 1.89143686692142 6.600388349421536 1.89143686692142 6.131105487175827 1.4220604288307963 C 5.661729049085203 0.9526839907401725 5.661635473240289 0.1915380682064537 6.131011911330912 -0.2778383698841702 L 7.830910710045878 1.4220604288307963" fill="#202020" transform="matrix(1,0,0,1,0,0)" fill-rule="nonzero"></path></g><g clip-path="url(#SvgjsClipPath31526a24b1a0-eb14-413e-ba9d-ef43a828dcdc)"><path d=" M 7.442645294699089 0.6468987034305544 L 7.223864969289226 0.6468987034305544 L 7.223864969289226 1.2890161512331582 L 7.116907778552068 1.2890161512331582 L 7.116907778552068 0.865585452995504 L 6.898221028987118 0.865585452995504 L 6.898221028987118 1.2890161512331582 L 6.791170262405046 1.2890161512331582 L 6.791170262405046 0.5929990167598609 L 6.572389936995182 0.5929990167598609 L 6.572389936995182 1.2890161512331582 L 6.465432746258024 1.2890161512331582 L 6.465432746258024 1.1167430207457503 L 6.24665242084816 1.1167430207457503 L 6.24665242084816 1.2890161512331582 L 6.160562643526913 1.2890161512331582 L 6.160562643526913 1.328598733631949 L 7.540432052634636 1.328598733631949 L 7.540432052634636 1.2890161512331582 L 7.442645294699089 1.2890161512331582 Z" fill="#facf0e" transform="matrix(1,0,0,1,0,0)" fill-rule="nonzero"></path></g><g clip-path="url(#bac5f6614-4f29-44bb-b0c7-ce4aa61bfe286a24b1a0-eb14-413e-ba9d-ef43a828dcdc)"><path d=" M 7.680815054803183 -0.182484583916398 C 7.6310339120560755 -0.1824714158821769 7.585733787776329 -0.15372278460630445 7.564526516032789 -0.10868486756076812 C 7.543319244289248 -0.06364695051523184 7.550016267192718 -0.010414113429209948 7.581718235038835 0.027967491296084668 L 7.362563606249314 0.3236671612255846 C 7.312466095963897 0.3022863400107123 7.254333517167169 0.3147674159225827 7.217427470787081 0.35482791758207943 L 6.792125255651139 0.19097661313696723 C 6.792312407340968 0.18891794454885047 6.792499559030796 0.1868592759607337 6.792499559030796 0.18470703152770263 C 6.792476965925788 0.12793345976562454 6.755220457186878 0.07789521485081075 6.700836599627074 0.061596902116417884 C 6.646452742067269 0.045298589382025245 6.587816793168153 0.06659879816662573 6.556573361189886 0.11400224655693403 C 6.52532992921162 0.16140569494724233 6.528875827278137 0.2236897218278897 6.5652974075786315 0.2672409267421957 L 6.36326715840845 0.708451035513592 C 6.301177053392205 0.6908272834623701 6.235643511918489 0.7219673692075159 6.210091337193344 0.7812367891819585 C 6.184539162468197 0.8405062091564013 6.206888337462216 0.9095342061966525 6.262329521735254 0.9425804293347693 C 6.317770706008294 0.9756266524728863 6.38911971699917 0.9624483130886563 6.429098219193741 0.9117778370738212 C 6.469076721388312 0.8611073610589861 6.465293242828641 0.7886502338161074 6.420254847961319 0.7424190672175188 L 6.6203200043883035 0.3055134473121912 C 6.676794747702283 0.3259345061016795 6.739880301775032 0.3044784211675098 6.772193600684372 0.25385958091944305 L 7.186547441965329 0.4135935481883217 C 7.173301621555158 0.4716835054085793 7.201700496382705 0.5312637099289701 7.255166776348355 0.557555377712216 C 7.308633056314006 0.5838470454954616 7.373158168750387 0.5699615592873861 7.4110768359285855 0.5240043012358133 C 7.448995503106784 0.4780470431842401 7.450372745354436 0.4120591650098846 7.41440462433189 0.3645598054531768 L 7.635337194174785 0.06624001186607364 C 7.683547873362986 0.08460402868451555 7.7380666916281635 0.07237319556823818 7.773812303829117 0.03517429894650126 C 7.809557916030069 -0.002024597675235773 7.819607532091993 -0.05698731268057011 7.799337833003098 -0.10442828653589109 C 7.779068133914203 -0.15186926039121207 7.732404716776674 -0.18260068282491432 7.680815054803183 -0.182484583916398" fill="#facf0e" transform="matrix(1,0,0,1,0,0)" fill-rule="nonzero"></path></g></g><g><path d=" M 0.2085 1.146 L 0.47400000000000003 1.146 C 0.546 1.146 0.6165 1.0844999999999998 0.6165 1.023 L 0.6165 0.714 C 0.6165 0.6495 0.5895 0.6194999999999999 0.54 0.5864999999999999 L 0.2895 0.4139999999999999 C 0.2655 0.3959999999999999 0.261 0.3839999999999999 0.261 0.3629999999999999 L 0.261 0.17849999999999988 L 0.4005 0.17849999999999988 L 0.4005 0.2789999999999999 C 0.4005 0.31799999999999984 0.41250000000000003 0.3314999999999999 0.426 0.3404999999999999 C 0.4515 0.3569999999999999 0.5325 0.4139999999999999 0.5685 0.4139999999999999 C 0.5835 0.4139999999999999 0.6015 0.3959999999999999 0.6015 0.3689999999999999 L 0.6015 0.13649999999999984 C 0.6015 0.07499999999999996 0.543 0.013499999999999845 0.453 0.013499999999999845 L 0.2025 0.013499999999999845 C 0.123 0.013499999999999845 0.06 0.053999999999999826 0.06 0.12899999999999978 L 0.06 0.4274999999999999 C 0.06 0.49349999999999994 0.0975 0.5249999999999999 0.14100000000000001 0.5549999999999999 L 0.3885 0.726 C 0.40800000000000003 0.7394999999999998 0.41550000000000004 0.7529999999999999 0.41550000000000004 0.7725 L 0.41550000000000004 0.9809999999999999 L 0.261 0.9809999999999999 L 0.261 0.8399999999999999 C 0.261 0.8009999999999999 0.249 0.7874999999999999 0.23550000000000001 0.7785 C 0.2115 0.7605 0.129 0.7049999999999998 0.099 0.7049999999999998 C 0.078 0.7049999999999998 0.06 0.7214999999999999 0.06 0.7484999999999999 L 0.06 1.023 C 0.06 1.0844999999999998 0.12 1.146 0.2085 1.146 M 1.081453857421875 0.17849999999999988 C 1.174453857421875 0.17849999999999988 1.174453857421875 0.1874999999999999 1.2044538574218748 0.22049999999999992 C 1.229953857421875 0.25049999999999983 1.241953857421875 0.26249999999999984 1.261453857421875 0.26249999999999984 C 1.2854538574218748 0.26249999999999984 1.301953857421875 0.24599999999999989 1.301953857421875 0.22199999999999986 L 1.301953857421875 0.038999999999999924 C 1.301953857421875 0.014999999999999902 1.2854538574218748 -2.220446049250313e-16 1.261453857421875 -2.220446049250313e-16 C 1.2524538574218749 -2.220446049250313e-16 1.237453857421875 0.0014999999999998348 1.2119538574218751 0.0044999999999999485 C 1.1819538574218749 0.008999999999999897 1.142953857421875 0.013499999999999845 1.118953857421875 0.013499999999999845 L 0.8429538574218749 0.013499999999999845 C 0.736453857421875 0.013499999999999845 0.716953857421875 -2.220446049250313e-16 0.692953857421875 -2.220446049250313e-16 C 0.668953857421875 -2.220446049250313e-16 0.659953857421875 0.010499999999999954 0.659953857421875 0.034499999999999975 L 0.659953857421875 0.23099999999999987 C 0.659953857421875 0.2489999999999999 0.6704538574218749 0.26249999999999984 0.686953857421875 0.26249999999999984 C 0.7079538574218749 0.26249999999999984 0.721453857421875 0.24749999999999994 0.754453857421875 0.21899999999999986 C 0.787453857421875 0.1904999999999999 0.7964538574218749 0.17849999999999988 0.880453857421875 0.17849999999999988 L 0.880453857421875 0.9944999999999999 C 0.880453857421875 1.0545 0.815953857421875 1.089 0.815953857421875 1.1204999999999998 C 0.815953857421875 1.134 0.827953857421875 1.146 0.8489538574218749 1.146 L 1.112953857421875 1.146 C 1.1339538574218748 1.146 1.1459538574218748 1.134 1.1459538574218748 1.1204999999999998 C 1.1459538574218748 1.089 1.081453857421875 1.0545 1.081453857421875 0.9944999999999999 M 1.517950927734375 1.146 L 1.8134509277343749 1.146 C 1.904950927734375 1.146 1.961950927734375 1.0785 1.961950927734375 1.017 L 1.961950927734375 0.14249999999999985 C 1.961950927734375 0.07649999999999979 1.903450927734375 0.013499999999999845 1.8134509277343749 0.013499999999999845 L 1.517950927734375 0.013499999999999845 C 1.4384509277343749 0.013499999999999845 1.375450927734375 0.05549999999999988 1.375450927734375 0.1349999999999998 L 1.375450927734375 1.0245 C 1.375450927734375 1.1024999999999998 1.4369509277343748 1.146 1.517950927734375 1.146 M 1.576450927734375 0.9704999999999999 L 1.576450927734375 0.18899999999999983 C 1.576450927734375 0.18299999999999994 1.580950927734375 0.17849999999999988 1.586950927734375 0.17849999999999988 L 1.750450927734375 0.17849999999999988 C 1.756450927734375 0.17849999999999988 1.760950927734375 0.18299999999999994 1.760950927734375 0.18899999999999983 L 1.760950927734375 0.9704999999999999 C 1.760950927734375 0.9749999999999999 1.756450927734375 0.9809999999999999 1.750450927734375 0.9809999999999999 L 1.586950927734375 0.9809999999999999 C 1.580950927734375 0.9809999999999999 1.576450927734375 0.9749999999999999 1.576450927734375 0.9704999999999999 M 2.65196337890625 0.7289999999999999 C 2.65196337890625 0.7124999999999999 2.6384633789062497 0.7004999999999999 2.6264633789062497 0.7004999999999999 C 2.60846337890625 0.7004999999999999 2.49146337890625 0.7799999999999999 2.46746337890625 0.7979999999999998 C 2.45546337890625 0.8069999999999999 2.4509633789062497 0.8144999999999999 2.4509633789062497 0.837 L 2.4509633789062497 0.9614999999999999 C 2.4509633789062497 0.9719999999999999 2.44196337890625 0.9809999999999999 2.43146337890625 0.9809999999999999 L 2.30096337890625 0.9809999999999999 C 2.29046337890625 0.9809999999999999 2.28146337890625 0.9719999999999999 2.28146337890625 0.9614999999999999 L 2.28146337890625 0.19799999999999984 C 2.28146337890625 0.1874999999999999 2.29046337890625 0.17849999999999988 2.30096337890625 0.17849999999999988 L 2.4164633789062497 0.17849999999999988 C 2.4269633789062497 0.17849999999999988 2.43596337890625 0.1874999999999999 2.43596337890625 0.19799999999999984 L 2.43596337890625 0.38849999999999985 C 2.43596337890625 0.4049999999999999 2.4494633789062497 0.4169999999999999 2.4614633789062497 0.4169999999999999 C 2.47946337890625 0.4169999999999999 2.59646337890625 0.3374999999999999 2.62046337890625 0.3194999999999999 C 2.63246337890625 0.3104999999999999 2.63696337890625 0.30299999999999994 2.63696337890625 0.28049999999999986 L 2.63696337890625 0.13649999999999984 C 2.63696337890625 0.07499999999999996 2.5769633789062496 0.013499999999999845 2.48846337890625 0.013499999999999845 L 2.22296337890625 0.013499999999999845 C 2.14196337890625 0.013499999999999845 2.08046337890625 0.053999999999999826 2.08046337890625 0.12899999999999978 L 2.08046337890625 1.0305 C 2.08046337890625 1.1055 2.14196337890625 1.146 2.22296337890625 1.146 L 2.50346337890625 1.146 C 2.59496337890625 1.146 2.65196337890625 1.0815 2.65196337890625 1.0245 M 3.484446533203125 1.119 C 3.484446533203125 1.0919999999999999 3.4409465332031246 1.0875 3.400446533203125 1.0139999999999998 L 3.1379465332031247 0.5324999999999999 L 3.3704465332031246 0.1469999999999999 C 3.401946533203125 0.09599999999999986 3.452946533203125 0.0674999999999999 3.452946533203125 0.04349999999999987 C 3.452946533203125 0.025499999999999856 3.4409465332031246 0.013499999999999845 3.4154465332031245 0.013499999999999845 L 3.1589465332031246 0.013499999999999845 C 3.142446533203125 0.013499999999999845 3.1274465332031247 0.0239999999999998 3.1274465332031247 0.038999999999999924 C 3.1274465332031247 0.05999999999999983 3.157446533203125 0.07499999999999996 3.157446533203125 0.10799999999999987 C 3.157446533203125 0.11399999999999988 3.1499465332031247 0.12749999999999995 3.1499465332031247 0.12749999999999995 L 2.990946533203125 0.4109999999999999 L 2.990946533203125 0.16499999999999992 C 2.990946533203125 0.10499999999999998 3.0554465332031246 0.07049999999999979 3.0554465332031246 0.038999999999999924 C 3.0554465332031246 0.0239999999999998 3.0434465332031246 0.013499999999999845 3.0224465332031247 0.013499999999999845 L 2.758446533203125 0.013499999999999845 C 2.7374465332031246 0.013499999999999845 2.7254465332031246 0.025499999999999856 2.7254465332031246 0.038999999999999924 C 2.7254465332031246 0.07049999999999979 2.789946533203125 0.10499999999999998 2.789946533203125 0.16499999999999992 L 2.789946533203125 0.9944999999999999 C 2.789946533203125 1.0545 2.7254465332031246 1.089 2.7254465332031246 1.1204999999999998 C 2.7254465332031246 1.134 2.7374465332031246 1.146 2.758446533203125 1.146 L 3.0224465332031247 1.146 C 3.0434465332031246 1.146 3.0554465332031246 1.134 3.0554465332031246 1.1204999999999998 C 3.0554465332031246 1.089 2.990946533203125 1.0545 2.990946533203125 0.9944999999999999 L 2.990946533203125 0.7665 L 3.0104465332031247 0.7304999999999999 L 3.1829465332031246 1.0379999999999998 C 3.202446533203125 1.0755 3.157446533203125 1.0875 3.157446533203125 1.1204999999999998 C 3.157446533203125 1.134 3.169446533203125 1.146 3.190446533203125 1.146 L 3.451446533203125 1.146 C 3.472446533203125 1.146 3.484446533203125 1.1324999999999998 3.484446533203125 1.119 M 3.793462646484375 0.16499999999999992 C 3.793462646484375 0.10499999999999998 3.8579626464843746 0.07049999999999979 3.8579626464843746 0.038999999999999924 C 3.8579626464843746 0.025499999999999856 3.8459626464843746 0.013499999999999845 3.8249626464843747 0.013499999999999845 L 3.560962646484375 0.013499999999999845 C 3.5399626464843745 0.013499999999999845 3.5279626464843745 0.025499999999999856 3.5279626464843745 0.038999999999999924 C 3.5279626464843745 0.07049999999999979 3.5924626464843747 0.10499999999999998 3.5924626464843747 0.16499999999999992 L 3.5924626464843747 0.9944999999999999 C 3.5924626464843747 1.0545 3.5279626464843745 1.089 3.5279626464843745 1.1204999999999998 C 3.5279626464843745 1.134 3.5399626464843745 1.146 3.560962646484375 1.146 L 3.8249626464843747 1.146 C 3.8459626464843746 1.146 3.8579626464843746 1.134 3.8579626464843746 1.1204999999999998 C 3.8579626464843746 1.089 3.793462646484375 1.0545 3.793462646484375 0.9944999999999999 M 4.306477294921875 0.3284999999999999 C 4.306477294921875 0.34499999999999986 4.319977294921875 0.3569999999999999 4.331977294921875 0.3569999999999999 C 4.3499772949218745 0.3569999999999999 4.4669772949218745 0.27749999999999986 4.4909772949218745 0.25949999999999984 C 4.502977294921875 0.25049999999999983 4.507477294921875 0.24299999999999988 4.507477294921875 0.22049999999999992 L 4.507477294921875 0.06449999999999978 C 4.507477294921875 0.02849999999999997 4.4924772949218745 0.013499999999999845 4.456477294921875 0.013499999999999845 L 3.949477294921875 0.013499999999999845 C 3.9284772949218745 0.013499999999999845 3.9164772949218745 0.025499999999999856 3.9164772949218745 0.038999999999999924 C 3.9164772949218745 0.07049999999999979 3.9809772949218747 0.10499999999999998 3.9809772949218747 0.16499999999999992 L 3.9809772949218747 0.9944999999999999 C 3.9809772949218747 1.0545 3.9164772949218745 1.089 3.9164772949218745 1.1204999999999998 C 3.9164772949218745 1.134 3.9284772949218745 1.146 3.949477294921875 1.146 L 4.213477294921875 1.146 C 4.2344772949218745 1.146 4.246477294921875 1.134 4.246477294921875 1.1204999999999998 C 4.246477294921875 1.089 4.181977294921874 1.0545 4.181977294921874 0.9944999999999999 L 4.181977294921874 0.7665 L 4.354477294921875 0.6569999999999999 C 4.376977294921875 0.6434999999999998 4.382977294921875 0.6315 4.382977294921875 0.6059999999999999 L 4.382977294921875 0.46799999999999986 C 4.382977294921875 0.4514999999999999 4.372477294921874 0.4364999999999999 4.354477294921875 0.4364999999999999 C 4.342477294921875 0.4364999999999999 4.3289772949218746 0.4424999999999999 4.315477294921875 0.4514999999999999 L 4.181977294921874 0.5354999999999999 L 4.181977294921874 0.17849999999999988 L 4.306477294921875 0.17849999999999988 M 4.852508789062499 0.1499999999999999 C 4.852508789062499 0.10799999999999987 4.900508789062499 0.07049999999999979 4.900508789062499 0.038999999999999924 C 4.900508789062499 0.025499999999999856 4.8885087890625 0.013499999999999845 4.8675087890625 0.013499999999999845 L 4.5840087890625 0.013499999999999845 C 4.5630087890625 0.013499999999999845 4.551008789062499 0.025499999999999856 4.551008789062499 0.038999999999999924 C 4.551008789062499 0.07049999999999979 4.6050087890624996 0.11249999999999982 4.6320087890625 0.16799999999999993 C 4.716008789062499 0.3404999999999999 4.8465087890625 0.6179999999999999 4.857008789062499 0.6509999999999999 L 4.857008789062499 0.9944999999999999 C 4.857008789062499 1.0545 4.7925087890624996 1.089 4.7925087890624996 1.1204999999999998 C 4.7925087890624996 1.134 4.8045087890625 1.146 4.8255087890625 1.146 L 5.089508789062499 1.146 C 5.1105087890625 1.146 5.1225087890625 1.134 5.1225087890625 1.1204999999999998 C 5.1225087890625 1.089 5.0580087890625 1.0545 5.0580087890625 0.9944999999999999 L 5.0580087890625 0.6509999999999999 C 5.068508789062499 0.6179999999999999 5.1990087890625 0.3404999999999999 5.2830087890624995 0.16799999999999993 C 5.3100087890625 0.11249999999999982 5.3640087890625 0.07049999999999979 5.3640087890625 0.038999999999999924 C 5.3640087890625 0.025499999999999856 5.352008789062499 0.013499999999999845 5.3310087890624995 0.013499999999999845 L 5.0475087890624994 0.013499999999999845 C 5.0265087890624995 0.013499999999999845 5.0145087890625 0.025499999999999856 5.0145087890625 0.038999999999999924 C 5.0145087890625 0.07049999999999979 5.0625087890625 0.10799999999999987 5.0625087890625 0.1499999999999999 L 4.9575087890625 0.3959999999999999" fill="#66eaa3" fill-rule="nonzero"></path></g><g></g></g><defs><clipPath id="SvgjsClipPath3157"><path d=" M 5.779026367187501 -0.6289349400029938 h 2.4079404327576643 v 2.4038698800059874 h -2.4079404327576643 Z"></path></clipPath><clipPath id="aac5f6614-4f29-44bb-b0c7-ce4aa61bfe286a24b1a0-eb14-413e-ba9d-ef43a828dcdc"><path d=" M 5.778979582762944 1.7749349400029937 L 8.186966799945164 1.7749349400029937 L 8.186966799945164 -0.6289349400029942 L 5.778979582762944 -0.6289349400029942 Z"></path></clipPath><clipPath id="SvgjsClipPath31526a24b1a0-eb14-413e-ba9d-ef43a828dcdc"><path d=" M 5.779026367187501 -0.6289349400029938 L 8.186966799945164 -0.6289349400029938 L 8.186966799945164 1.7749349400029937 L 5.779026367187501 1.7749349400029937 Z"></path></clipPath><clipPath id="bac5f6614-4f29-44bb-b0c7-ce4aa61bfe286a24b1a0-eb14-413e-ba9d-ef43a828dcdc"><path d=" M 5.778979582762944 1.7749349400029937 L 8.186966799945164 1.7749349400029937 L 8.186966799945164 -0.6289349400029942 L 5.778979582762944 -0.6289349400029942 Z"></path></clipPath></defs></svg>